<svg width="95" height="95" viewBox="0 0 95 95" fill="none" xmlns="http://www.w3.org/2000/svg">
<path d="M43.5417 15.8333H15.8334C13.7337 15.8333 11.7201 16.6674 10.2354 18.1521C8.75076 19.6367 7.91669 21.6504 7.91669 23.75V79.1667C7.91669 81.2663 8.75076 83.2799 10.2354 84.7646C11.7201 86.2493 13.7337 87.0833 15.8334 87.0833H71.25C73.3497 87.0833 75.3633 86.2493 76.848 84.7646C78.3326 83.2799 79.1667 81.2663 79.1667 79.1667V51.4583M73.2292 9.89583C74.8039 8.3211 76.9397 7.43643 79.1667 7.43643C81.3937 7.43643 83.5295 8.3211 85.1042 9.89583C86.6789 11.4705 87.5636 13.6063 87.5636 15.8333C87.5636 18.0603 86.6789 20.1961 85.1042 21.7708L47.5 59.375L31.6667 63.3333L35.625 47.5L73.2292 9.89583Z" stroke="#1E1E1E" stroke-width="4" stroke-linecap="round" stroke-linejoin="round"/>
</svg>
