<svg width="69" height="69" viewBox="0 0 69 69" fill="none" xmlns="http://www.w3.org/2000/svg">
<path d="M66.125 11.5V28.75M66.125 28.75H48.875M66.125 28.75L52.785 16.215C49.6951 13.1236 45.8724 10.8652 41.6737 9.65073C37.4749 8.43623 33.0369 8.30516 28.7738 9.26975C24.5107 10.2343 20.5614 12.2631 17.2945 15.1668C14.0275 18.0705 11.5494 21.7545 10.0912 25.875M2.875 57.5V40.25M2.875 40.25H20.125M2.875 40.25L16.215 52.785C19.3049 55.8765 23.1276 58.1348 27.3263 59.3493C31.5251 60.5638 35.9631 60.6948 40.2262 59.7303C44.4893 58.7657 48.4386 56.7369 51.7055 53.8332C54.9725 50.9295 57.4506 47.2455 58.9087 43.125" stroke="#1E1E1E" stroke-width="4" stroke-linecap="round" stroke-linejoin="round"/>
</svg>
