<svg width="117" height="76" viewBox="0 0 117 76" fill="none" xmlns="http://www.w3.org/2000/svg">
<rect width="117" height="76" rx="10" fill="black"/>
<path d="M22.168 62C21.4 62 20.8133 61.808 20.408 61.424C20.0027 61.0187 19.8 60.432 19.8 59.664V24.048H7C6.232 24.048 5.64533 23.856 5.24 23.472C4.83467 23.0667 4.632 22.48 4.632 21.712C4.632 20.944 4.83467 20.3573 5.24 19.952C5.64533 19.5467 6.232 19.344 7 19.344H37.336C38.104 19.344 38.68 19.5467 39.064 19.952C39.4693 20.3573 39.672 20.944 39.672 21.712C39.672 22.48 39.4693 23.0667 39.064 23.472C38.68 23.856 38.104 24.048 37.336 24.048H24.504V59.664C24.504 60.3893 24.3013 60.9653 23.896 61.392C23.4907 61.7973 22.9147 62 22.168 62ZM50.346 62C46.8473 62 44.2553 61.1573 42.57 59.472C40.8847 57.7867 40.042 55.1947 40.042 51.696C40.042 48.1973 40.874 45.6053 42.538 43.92C44.2233 42.2347 46.826 41.392 50.346 41.392H64.202C64.1167 38.96 63.5193 37.2853 62.41 36.368C61.3007 35.4507 59.4127 34.992 56.746 34.992H53.034C50.7087 34.992 48.9807 35.184 47.85 35.568C46.7407 35.952 45.994 36.624 45.61 37.584C45.3113 38.352 44.9807 38.896 44.618 39.216C44.2767 39.5147 43.7433 39.664 43.018 39.664C42.2287 39.664 41.61 39.4507 41.162 39.024C40.7353 38.576 40.6073 37.9893 40.778 37.264C41.29 34.8533 42.5487 33.0933 44.554 31.984C46.5593 30.8533 49.386 30.288 53.034 30.288H56.746C60.906 30.288 63.978 31.28 65.962 33.264C67.946 35.248 68.938 38.32 68.938 42.48V59.632C68.938 61.2107 68.1593 62 66.602 62C65.0233 62 64.234 61.2107 64.234 59.632V57.616C62.0367 60.5387 58.602 62 53.93 62H50.346ZM50.346 57.296H53.93C55.658 57.296 57.2473 57.1253 58.698 56.784C60.1487 56.4427 61.3647 55.8453 62.346 54.992C63.3273 54.1387 63.9567 52.944 64.234 51.408V46.096H50.346C48.1487 46.096 46.666 46.4907 45.898 47.28C45.13 48.048 44.746 49.52 44.746 51.696C44.746 53.8933 45.13 55.376 45.898 56.144C46.666 56.912 48.1487 57.296 50.346 57.296ZM83.55 62C81.9713 62 81.182 61.2107 81.182 59.632V19.504C81.182 17.9467 81.9713 17.168 83.55 17.168C85.1073 17.168 85.886 17.9467 85.886 19.504V34.064C86.9527 32.8053 88.3287 31.856 90.014 31.216C91.7207 30.576 93.79 30.256 96.222 30.256H98.654C102.814 30.256 105.886 31.248 107.87 33.232C109.854 35.216 110.846 38.2987 110.846 42.48V49.776C110.846 53.936 109.854 57.0187 107.87 59.024C105.886 61.008 102.814 62 98.654 62H96.222C93.79 62 91.7207 61.68 90.014 61.04C88.3287 60.4 86.9527 59.4613 85.886 58.224V59.632C85.886 61.2107 85.1073 62 83.55 62ZM96.222 57.296H98.654C101.534 57.296 103.497 56.7627 104.542 55.696C105.609 54.608 106.142 52.6347 106.142 49.776V42.48C106.142 39.6 105.598 37.6267 104.51 36.56C103.443 35.4933 101.491 34.96 98.654 34.96H96.222C93.2353 34.96 90.7607 35.376 88.798 36.208C86.8567 37.04 85.886 38.3093 85.886 40.016V52.272C85.9073 53.9573 86.8887 55.216 88.83 56.048C90.7713 56.88 93.2353 57.296 96.222 57.296Z" fill="white"/>
</svg>
