<svg width="100" height="101" viewBox="0 0 100 101" fill="none" xmlns="http://www.w3.org/2000/svg">
<path d="M12.5 25.72H20.8333M20.8333 25.72H87.5M20.8333 25.72V84.0533C20.8333 86.2634 21.7113 88.3831 23.2741 89.9459C24.8369 91.5087 26.9565 92.3866 29.1667 92.3866H70.8333C73.0435 92.3866 75.1631 91.5087 76.7259 89.9459C78.2887 88.3831 79.1667 86.2634 79.1667 84.0533V25.72M33.3333 25.72V17.3866C33.3333 15.1765 34.2113 13.0569 35.7741 11.4941C37.3369 9.93129 39.4565 9.05331 41.6667 9.05331H58.3333C60.5435 9.05331 62.6631 9.93129 64.2259 11.4941C65.7887 13.0569 66.6667 15.1765 66.6667 17.3866V25.72" stroke="#1E1E1E" stroke-width="4" stroke-linecap="round" stroke-linejoin="round"/>
</svg>
